<?xml version="1.0" encoding="UTF-8"?>
<!DOCTYPE svg PUBLIC "-//W3C//DTD SVG 1.1//EN" "http://www.w3.org/Graphics/SVG/1.1/DTD/svg11.dtd">
<!-- Creator: CorelDRAW 2019 (64-Bit) -->
<svg xmlns="http://www.w3.org/2000/svg" xml:space="preserve" width="72.2312mm" height="23.0187mm" version="1.1" style="shape-rendering:geometricPrecision; text-rendering:geometricPrecision; image-rendering:optimizeQuality; fill-rule:evenodd; clip-rule:evenodd"
viewBox="0 0 311.49 99.27"
 xmlns:xlink="http://www.w3.org/1999/xlink">
 <defs>
  <style type="text/css">
   <![CDATA[
    .str0 {stroke:#F50505;stroke-width:0.86;stroke-miterlimit:22.9256}
    .fil0 {fill:none}
    .fil1 {fill:#010101}
    .fil3 {fill:#949494}
    .fil2 {fill:#F50505}
   ]]>
  </style>
 </defs>
 <g id="Capa_x0020_1">
  <metadata id="CorelCorpID_0Corel-Layer"/>
  <rect class="fil0" y="-0" width="311.49" height="99.27"/>
  <path class="fil1" d="M224.56 51.8c-0.17,-2.33 1.21,-8.28 1.65,-10.78l1.94 -10.25c0.02,-0.17 0.07,-0.21 0.13,-0.3l0.56 1.43c0.1,0.41 0.14,0.82 0.21,1.25 0.72,4.44 3.03,15.93 3.16,18.61l-7.65 0.03zm-2.12 10.94l11.81 0 2.31 13.01 12.04 -0.02c0.23,-2.43 -4.59,-24.78 -5.53,-29.27 -2,-9.5 -3.85,-19.48 -5.77,-29.37l-17.96 -0.02 -11.37 58.7 12.1 -0.06 2.37 -12.98z"/>
  <path class="fil1" d="M192.19 43.13c-0.41,2.95 -0.14,7.7 -0.14,10.85 0,1.7 0.62,9.4 -0.66,10.18 -2.28,1.38 -7.15,0.12 -8.02,-2.13 -0.38,-0.99 -1.14,-29.59 0.6,-31.54 3.85,-4.32 15.54,-0.58 18.1,-0.17l-0.06 -12.16c-8.14,-1.57 -19.67,-3.32 -27.02,2.62 -3.25,2.63 -4.95,5.81 -4.94,11.67 0.01,5.36 0.01,10.71 0.01,16.07 0,11.4 -1.95,20.86 7.2,25.45 7.31,3.67 20.63,2.51 27.29,-1.36l-0.12 -29.49 -12.26 0.02z"/>
  <polygon class="fil1" points="121.43,75.78 144.1,75.63 144.09,62.75 134.28,62.54 134.17,17.07 121.26,17.14 "/>
  <path class="fil1" d="M255.5 17.31l0.07 12.38c2.31,0.87 6.71,-0.05 9.42,0.38 0.75,2.46 -0.1,38.32 0.28,45.4l12.65 0.12c0.2,-5.63 0.32,-56.42 -0.17,-58.23l-22.25 -0.05z"/>
  <polygon class="fil1" points="150.66,75.77 163.57,75.7 163.53,17.1 150.51,17.15 "/>
  <path class="fil2 str0" d="M66.67 40.03c0.09,-0.08 0.44,-0.74 0.47,-0.83 0.29,-0.99 -0.21,-1.67 -0.56,-2.45l-2.5 -7.08c-1.01,-3.71 0.02,-2.49 -1.2,-3.01l-4.99 15.39c-3.2,0.7 -8.56,0.23 -12.65,0.61 -1.66,0.15 -2.29,-0.37 -3.61,0.32l2.44 2.42c0.06,0.05 0.14,0.12 0.2,0.18 1.12,0.95 0.38,0.39 1.67,1.16 1.84,1.09 0.01,0.43 3.5,2.41 1.17,0.66 1.15,1.25 2.38,2.1 0.19,0.13 0.63,0.35 0.91,0.54 0.42,0.28 0.9,0.72 1.29,1.11 -0.15,2.91 -1.15,5.74 -2.35,8.09 -1.13,2.21 -0.53,2.62 -1.07,4.5 -0.44,1.52 -1.38,1.03 -1.23,2.71 0.11,1.18 -0.12,0.27 0.37,0.94 0.79,-0.91 0.9,-1.9 1.18,-3.08l0.64 1.43c2.7,-2.22 1.21,-0.31 4.43,-3.22 1.74,-1.57 1.72,-1.11 2.83,-1.98 1.01,-0.78 3.11,-2.61 5,-2.33 1.06,0.16 2.46,1.58 3.05,2.09l5.73 4.1c2.82,1.77 2.38,2.27 2.53,1.92 0.02,-0.05 0.1,0.13 0.16,0.17 0.57,-0.81 0.63,-0.92 0.54,-2 -0.07,-0.76 -0.32,-1.51 -0.45,-2.1 -0.82,-3.69 -0.08,-1.97 -1.59,-3.88 -1.2,-1.52 -0.98,-2.23 -1.04,-3.71 -0.07,-1.64 -1.3,-2.29 -0.31,-3.93 0.61,-1.02 1.32,-0.89 2.52,-1.85 0.01,-0.01 0.57,-0.53 0.58,-0.54 3.88,-3.67 7.41,-4.48 8.58,-7.22 -3.43,-0.27 -6.2,-0.48 -9.92,-0.47 -5.51,0.01 -5.22,-0.16 -7.53,-2.48z"/>
  <path class="fil2 str0" d="M27.91 65.03c-0.18,-1.38 0.17,-0.74 -2.17,-2.65l6.23 -19.87 4.9 -0.1c-0.37,3.07 -2.65,10.51 -4.11,13.22 -3.84,7.1 2.76,4.44 0.65,9.91 -1.07,2.78 -2.74,0.88 -3.67,-0.65l-1.83 0.15zm38.75 -25c2.31,2.33 2.02,2.5 7.53,2.48 3.72,-0.01 6.49,0.19 9.92,0.47 -1.17,2.73 -4.7,3.55 -8.58,7.22 -0.01,0.01 -0.57,0.53 -0.58,0.54 -1.2,0.97 -1.9,0.83 -2.52,1.85 -0.99,1.65 0.25,2.3 0.31,3.93 0.06,1.48 -0.16,2.19 1.04,3.71 1.51,1.91 0.77,0.19 1.59,3.88 0.13,0.6 0.38,1.35 0.45,2.1 0.1,1.08 0.03,1.19 -0.54,2 -0.07,-0.04 -0.14,-0.22 -0.16,-0.17 -0.15,0.35 0.29,-0.16 -2.53,-1.92l-5.73 -4.1c-0.59,-0.51 -2,-1.93 -3.05,-2.09 -1.88,-0.28 -3.99,1.55 -5,2.33 -1.11,0.86 -1.09,0.41 -2.83,1.98 -3.22,2.91 -1.74,1 -4.43,3.22l-0.64 -1.43c-0.28,1.18 -0.39,2.18 -1.18,3.08 -0.5,-0.67 -0.27,0.25 -0.37,-0.94 -0.15,-1.69 0.78,-1.19 1.23,-2.71 0.54,-1.87 -0.06,-2.29 1.07,-4.5 1.2,-2.35 2.21,-5.18 2.35,-8.09 -0.39,-0.38 -0.87,-0.83 -1.29,-1.11 -0.29,-0.19 -0.72,-0.41 -0.91,-0.54 -1.23,-0.85 -1.21,-1.44 -2.38,-2.1 -3.49,-1.97 -1.66,-1.32 -3.5,-2.41 -1.29,-0.77 -0.55,-0.21 -1.67,-1.16 -0.06,-0.05 -0.14,-0.12 -0.2,-0.18l-2.44 -2.42c1.31,-0.69 1.95,-0.17 3.61,-0.32 4.09,-0.38 9.45,0.08 12.65,-0.61l4.99 -15.39c1.22,0.52 0.19,-0.7 1.2,3.01l2.5 7.08c0.35,0.78 0.85,1.46 0.56,2.45 -0.03,0.1 -0.38,0.76 -0.47,0.83zm-29.02 -14.53c0.15,-1.5 0.63,-3.02 0.99,-4.13 0.47,-1.43 1,-2.22 1.25,-3.35 5.06,-0.31 16.42,-0.62 20.63,0.36 1.12,3.88 0.39,3.08 0.23,4.6 -2.64,0.26 -3.32,-0.1 -5.53,-0.17 -2.31,-0.07 -3.61,0.25 -5.46,0.33 -8.61,0.33 -5.92,0.37 -7.66,3.38 -1.91,0.27 -2.93,0.29 -4.45,-1.02zm54.36 8.14c-0.63,2.33 1,2.15 -0.25,4.31 -0.73,1.26 -1.41,2.18 -3.5,2.31 -0.55,-3.16 -2.08,-6.8 -3.5,-9.64 -2.19,-4.39 0.84,-6.74 -5.7,-7.8 -0.64,-1.11 -0.58,-0.75 -0.91,-2.13 -0.06,-0.23 -0.3,-1.26 -0.34,-1.48 -0.11,-0.79 -0.2,-0.24 0.01,-1 1.94,-0.71 5.85,-0.15 8.08,-0.09l3.24 8.6c0.18,1.43 -0.27,1.74 0.28,3.18 -0.04,-0.11 -0.54,-0.16 0.16,-0.15 0.01,0 0.09,-0 0.1,0 0.02,0 0.11,0.03 0.13,0.04 0.65,0.36 0.42,0.24 0.73,0.88 0.41,0.84 0.54,1.89 0.63,2.88l0.85 0.1zm-64.08 31.39c0.27,1.06 4.32,3.72 5.4,3.88l2.29 -6.49 -2.74 -2.54c0.26,-2.38 4.48,-14.71 5.46,-16.92 1.62,0.56 5.6,3.75 7.27,4.97 2.35,1.71 5.34,4.11 7.15,5.23 -0.06,2.33 -2.78,9.66 -3.71,12.54 -0.73,2.26 -3.72,10.55 -3.64,12.38 1.66,1.42 10.19,7.95 11.74,7.98 0.33,-1.22 -2.09,-2.32 -4.74,-4.44 -0.23,-0.18 -0.39,-0.3 -0.63,-0.47l-2.68 -2.05c-2.63,-2.4 -3.39,0.75 -1.11,-6.09 2.28,0.56 3.14,1.9 4.15,2.71 0.83,0.66 1.26,0.61 2.2,1.45 1.14,1.01 0.61,1.12 2.58,0.95 -0.73,-2.2 -7.24,-4.43 -8.33,-7.06l13.84 -9.93c1.55,-0.61 1.82,0.28 2.33,1.08 2.63,0.65 17.55,13.46 19.32,13.34 1.48,-0.63 3.09,-2.08 4.13,-2.81 1.4,-0.99 3.25,-1.9 4.13,-3.39 -1.91,-0.01 -1.32,0.1 -2.42,1.07l-4.57 2.81c-1.46,0.54 -1.58,0.71 -2.99,0.35 -1.7,-3.25 0.78,-0.18 -1.99,-2.89 1.16,-0.66 2.3,-1.27 3.28,-2.15 1.55,-1.39 5.1,-3.11 6.67,-4.99 1.42,-1.7 2.8,-1.05 3.02,-3.14 -2.73,1.06 -10.41,7.99 -13.1,8.98l-1.63 1.05c-0.76,-3.04 -5.29,-14.76 -5.3,-17.17 2.98,-2.35 6.79,-5.1 9.99,-7.32 3.61,-2.51 6.62,-5.02 10.36,-7.51 -0.04,-1.21 -0.12,-1.45 -0.46,-2.63 -0.69,-2.4 -0.81,-1.89 -1.18,-2.15 0.23,-1.83 -4.08,-14.71 -4.99,-16.51l-10.93 -0.09 2 7c4.62,0.49 3.19,-1.63 6.04,7.27 0.71,2.2 3.06,8.24 3.16,10.18 -4.05,0.16 -8.27,0.04 -12.34,0.04 -7.23,0 -5.35,0.86 -7.38,-5.38 -0.97,-2.99 -5.31,-17.4 -6.5,-19.03l-21.96 -0.08c-0.74,1.75 -3.21,8.92 -3.23,10.6l7.24 0.05 1.23 -3.49 18.05 -0.07 -5.52 17.29 -25.75 0.14c-0.74,1.34 -6.57,19.88 -6.66,21.19 0.96,1.05 1.88,1.93 3.45,2.28z"/>
  <path class="fil2 str0" d="M93.36 58.69l-0.03 1.72c-0.22,2.09 -1.6,1.44 -3.02,3.14 -1.57,1.88 -5.12,3.6 -6.67,4.99 -0.98,0.88 -2.13,1.49 -3.28,2.15 2.78,2.71 0.29,-0.36 1.99,2.89 1.41,0.37 1.53,0.19 2.99,-0.35l4.57 -2.81c1.1,-0.97 0.51,-1.08 2.42,-1.07 1.17,-0.31 2.12,-1.18 3.04,-1.88 0.79,-0.6 1.95,-1.22 2.44,-2.04 0.28,-2.27 -0.43,-0.04 2.62,-3.05 -0.19,-2.32 -1.53,-6.73 -2.72,-8.51 -3.65,2.13 -3.91,2.6 -4.35,4.81z"/>
  <path class="fil2 str0" d="M38.5 65.5c0.8,3.45 -0.89,2.76 -0.84,5.72 4.33,3.58 4.81,1.7 6.15,-3.99 0.43,-1.83 0.54,-1.46 1.14,-2.63 0.83,-1.61 0.24,-2.03 0.56,-4.05 0.06,-0.2 1.9,-1.28 1.98,-4.47 0.04,-1.71 -2.43,-3.11 -3.81,-3.67l0 -1.35c-0.39,-0.82 -2.07,-2.02 -3.43,-2.56 -0.89,1.05 -2.35,5.34 -2.09,6.83l2.4 1.93c-0.13,2.77 -2.37,5.9 -2.06,8.23z"/>
  <path class="fil2 str0" d="M79.58 53.01c-1.07,0.19 -1.68,0.87 -2.42,1.7 0.16,1.37 2.3,7.52 2.62,7.98 2,0.47 0.48,0.38 2.08,0.71 0.2,-0.3 0.25,-0.48 0.52,-0.87 1.19,-1.72 1.03,-0.36 2.74,-1.6 0.09,-2.12 -0.37,-2.53 0.15,-5.02l4.57 -2.66c0.98,-0.77 0.29,-0.57 1.52,-1.3l0.67 0.26 -0.08 0.06 0.15 -1.23c1.69,-0.56 0.62,-0.34 1.89,-1.37 0.66,-0.54 1.05,-0.65 1.69,-1.14 0.22,-2.01 -0.53,-3.01 -1.02,-4.68 -1.7,-0.01 -0.92,0.21 -2.94,1.76 -1.26,0.96 -1.93,0.88 -2.83,1.56 -0.78,0.6 -0.29,0.34 -0.73,0.72l-2.75 2.03c-0.59,0.37 -1.12,0.55 -1.85,1.05 -1.84,1.26 -1.21,2.21 -3.97,2.07z"/>
  <path class="fil2 str0" d="M68.83 77.55c0.33,1.06 2.4,1.95 3.49,2.79 0.51,0.39 1.39,1.18 1.9,1.4 1.92,0.82 0.59,-0.11 2.12,-0.01l0.62 -1.09c0.02,-0.03 0.05,-0.11 0.08,-0.16 0.14,-2.52 0.59,-0.69 1.63,-2.77 -0.1,-0.12 -3.4,-2.98 -3.75,-3.25l-4.14 -2.8c-1.64,-0.94 -5.54,-4.68 -8.67,-5.26 -1.51,1.77 -4.88,3.45 -6.18,5.1 3.59,4.07 5.53,1.41 8.78,1.57 2.67,3.37 4.02,2.38 4.14,4.47z"/>
  <path class="fil2 str0" d="M37.64 25.5c1.52,1.31 2.54,1.29 4.45,1.02 1.74,-3.01 -0.95,-3.05 7.66,-3.38 1.85,-0.07 3.16,-0.39 5.46,-0.33 2.2,0.07 2.89,0.43 5.53,0.17 0.15,-1.52 0.89,-0.72 -0.23,-4.6 -4.21,-0.99 -15.58,-0.68 -20.63,-0.36 -0.25,1.13 -0.77,1.92 -1.25,3.35 -0.37,1.12 -0.85,2.63 -0.99,4.13z"/>
  <path class="fil2 str0" d="M92 33.64l-0.85 -0.1c-0.09,-0.99 -0.22,-2.04 -0.63,-2.88 -0.31,-0.65 -0.08,-0.52 -0.73,-0.88 -0.02,-0.01 -0.11,-0.04 -0.13,-0.04 -0.01,-0 -0.09,-0 -0.1,-0 -0.69,-0.01 -0.2,0.04 -0.16,0.15 -0.55,-1.44 -0.1,-1.75 -0.28,-3.18l-3.24 -8.6c-2.23,-0.06 -6.13,-0.61 -8.08,0.09 -0.21,0.75 -0.12,0.2 -0.01,1 0.03,0.22 0.28,1.25 0.34,1.48 0.34,1.38 0.27,1.02 0.91,2.13 6.54,1.07 3.52,3.42 5.7,7.8 1.42,2.84 2.94,6.48 3.5,9.64 2.08,-0.13 2.77,-1.05 3.5,-2.31 1.25,-2.15 -0.38,-1.97 0.25,-4.31z"/>
  <path class="fil2 str0" d="M27.91 65.03l1.83 -0.15c0.93,1.54 2.6,3.43 3.67,0.65 2.1,-5.46 -4.49,-2.81 -0.65,-9.91 1.46,-2.71 3.74,-10.15 4.11,-13.22l-4.9 0.1 -6.23 19.87c2.34,1.91 1.99,1.27 2.17,2.65z"/>
  <path class="fil2 str0" d="M57.12 86.06c3.26,-0.86 0.93,1.63 6.13,3.45 1.06,-0.87 0.41,-0.58 1.72,-1.26l4.87 -4.33c-7.25,-5.25 -4.52,1.08 -9.21,-2.11 -0.96,-0.65 -3.42,-2.69 -3.74,-3.7 -1.97,0.17 -1.45,0.06 -2.58,-0.95 -0.94,-0.84 -1.37,-0.79 -2.2,-1.45 -1.01,-0.81 -1.87,-2.14 -4.15,-2.71 -2.28,6.85 -1.52,3.69 1.11,6.09l2.68 2.05c0.24,0.18 0.4,0.29 0.63,0.47 2.65,2.13 5.07,3.22 4.74,4.44z"/>
  <path class="fil2 str0" d="M72.33 37.24l9.26 0.11c-0.07,-2.44 -0.35,-1.06 -0.96,-2.25 -0.47,-0.92 -0.31,-1.75 -0.58,-2.95 -4.52,0.08 -4.2,-0.94 -4.82,-3.03 -0.59,-1.97 -0.39,-0.62 -0.96,-1.8 -0.24,-0.49 -2.22,-8.32 -2.25,-9.13 -0.05,0.05 1.16,0.23 -0.22,0.01 -0.02,-0 -0.12,-0.02 -0.15,-0.02 -1.53,-0.28 -3.42,-0.7 -5.19,-0.05 -0.39,1.67 3.91,11.49 4.45,14.07l1.43 5.04z"/>
  <path class="fil2 str0" d="M35.63 32.25c-0.57,1.22 -0.41,0.96 -0.66,2.31 -0.1,0.53 -0.33,2.03 0.11,2.37 1.05,0.33 16.53,0.5 17.94,0.26 0.88,-1.03 0.3,-0.43 0.88,-1.64 0.96,-2.01 1.98,-3.46 2.14,-6.84 -8.17,-0.16 -3.56,0.93 -6.12,2.76 -1.57,1.13 -9.39,0.02 -14.3,0.77z"/>
  <path class="fil3" d="M255.5 17.31l22.25 0.05c0.49,1.81 0.37,52.6 0.17,58.23l-12.65 -0.12c-0.39,-7.07 0.46,-42.94 -0.28,-45.4 -2.71,-0.44 -7.11,0.48 -9.42,-0.38l-0.07 -12.38zm0 0c-0.74,0.19 -0.28,-0.45 -0.45,0.88l0.09 11.83c1.81,0.92 7.28,0.49 9.55,0.39l0.1 45.43c1.93,0.55 11.69,0.56 13.42,-0.05 0.61,-2.18 0.4,-57.55 -0.09,-58.83l-21.73 -0.17c-1.09,0.18 -0.5,-0.13 -0.88,0.52z"/>
  <path class="fil2 str0" d="M80.63 35.1c0.61,1.19 0.89,-0.18 0.96,2.25l-9.26 -0.11 -1.43 -5.04c-0.53,-2.58 -4.83,-12.4 -4.45,-14.07 1.77,-0.65 3.66,-0.22 5.19,0.05 0.03,0.01 0.13,0.02 0.15,0.02 1.38,0.22 0.17,0.05 0.22,-0.01 0.03,0.81 2.01,8.64 2.25,9.13 0.57,1.17 0.38,-0.18 0.96,1.8 0.62,2.09 0.31,3.11 4.82,3.03 0.27,1.2 0.11,2.02 0.58,2.95zm-14.66 -13.98l5.69 17.06 11.11 0.03c-0.1,-1.44 -1.76,-6.02 -2.33,-7.23l-3.33 -0.03c-0.69,-1.28 -2.36,-5.88 -2.35,-7.35 -3.31,-3.57 1.75,-8.02 -9.75,-6.37l0.97 3.88z"/>
  <path class="fil2 str0" d="M35.63 32.25c4.91,-0.76 12.72,0.36 14.3,-0.77 2.56,-1.84 -2.05,-2.93 6.12,-2.76 -0.17,3.39 -1.18,4.84 -2.14,6.84 -0.58,1.21 0.01,0.61 -0.88,1.64 -1.41,0.24 -16.9,0.07 -17.94,-0.26 -0.44,-0.33 -0.2,-1.84 -0.11,-2.37 0.24,-1.35 0.09,-1.09 0.66,-2.31zm18.89 5.81l2 -6.16 1.01 -4.28 -7.13 0.08 -1.25 3.07c-2.77,1.14 -10.83,0.06 -14.58,0.35 -0.44,1.03 -2.13,5.91 -2.08,7.03l22.03 -0.09z"/>
  <path class="fil2 str0" d="M68.83 77.55c-0.12,-2.09 -1.46,-1.1 -4.14,-4.47 -3.25,-0.16 -5.19,2.5 -8.78,-1.57 1.29,-1.65 4.67,-3.33 6.18,-5.1 3.13,0.57 7.03,4.31 8.67,5.26l4.14 2.8c0.36,0.27 3.65,3.13 3.75,3.25 -1.04,2.07 -1.49,0.25 -1.63,2.77 1.18,-0.48 2.6,-1.61 3.48,-2.4 -0.35,-0.93 0.12,-0.58 -1.85,-1.91l-14.68 -11.06c-1.92,-0.22 -3.27,1.31 -5.14,2.7 -1.78,1.32 -3.7,2.04 -4.52,3.9l5.64 3.86c1.89,-0.42 1.25,-1.08 3.29,-1.55 2.13,0.97 3.47,2.86 5.58,3.53z"/>
  <path class="fil2 str0" d="M38.5 65.5c-1.03,0.99 -2.02,4.69 -2.2,5.98 1.14,0.74 4.49,2.97 5.21,4.11l-0.14 -0.18c1.58,-0.41 1.43,-1.12 2.59,-4.98 0.53,-1.77 1.12,-3.49 1.69,-5.19 0.67,-2 3.15,-8.87 3.08,-10.99 -1.49,-0.85 -3.28,-2.62 -5.05,-3.18l0 1.35c1.38,0.56 3.86,1.95 3.81,3.67 -0.08,3.19 -1.92,4.27 -1.98,4.47 -0.33,2.02 0.27,2.44 -0.56,4.05 -0.6,1.16 -0.71,0.8 -1.14,2.63 -1.34,5.69 -1.82,7.57 -6.15,3.99 -0.06,-2.96 1.64,-2.26 0.84,-5.72z"/>
  <path class="fil2 str0" d="M57.12 86.06c0.23,1.37 0.72,1.12 2.8,2.68 1.18,0.88 1.83,1.58 3.33,1.94 1.3,-0.55 7.76,-5.06 8.46,-6.38 -0.66,-1.01 -4.39,-3.51 -5.54,-4.11 -1.69,0.44 -1.66,0.93 -2.92,1.62 -1.23,-0.3 -3.94,-2.27 -4.38,-3.03 -1.41,-0.55 -0.67,-0.42 -1.97,-0.66 0.32,1.01 2.78,3.05 3.74,3.7 4.69,3.19 1.96,-3.13 9.21,2.11l-4.87 4.33c-1.31,0.67 -0.67,0.39 -1.72,1.26 -5.2,-1.82 -2.87,-4.31 -6.13,-3.45z"/>
  <path class="fil2 str0" d="M79.58 53.01c2.76,0.14 2.13,-0.81 3.97,-2.07 0.73,-0.5 1.25,-0.68 1.85,-1.05l2.75 -2.03c0.45,-0.37 -0.04,-0.12 0.73,-0.72 0.89,-0.68 1.57,-0.6 2.83,-1.56 2.02,-1.54 1.24,-1.77 2.94,-1.76 0.49,1.67 1.24,2.67 1.02,4.68 -0.64,0.49 -1.03,0.61 -1.69,1.14 -1.27,1.03 -0.2,0.82 -1.89,1.37l-0.15 1.23c1.31,-0.47 1.14,-0.7 2.7,-1.32l2.47 -2.13c-0.09,-1.99 -1.39,-4.9 -1.98,-7 -1.14,0.33 -14.38,9.59 -15.56,11.2z"/>
  <path class="fil2 str0" d="M97.13 52.66c-1.31,1.8 -2.76,1.85 -4.63,3.88 0.19,1.4 0.14,1.35 0.85,2.15 0.44,-2.21 0.7,-2.68 4.35,-4.81 1.19,1.78 2.53,6.19 2.72,8.51 -3.05,3.01 -2.34,0.79 -2.62,3.05 1.6,-0.58 2.82,-1.55 4.03,-2.74l-3.3 -10.41c-1.15,0.22 -0.18,0.17 -1.41,0.37z"/>
  <path class="fil2 str0" d="M79.78 62.7l0.53 2.34c1.95,-0.53 2.29,-1.81 3.77,-2.09l1.16 -1.21c0.42,-0.33 0.51,-0.35 1.12,-0.84l-0.75 -3.62c1.96,-1.8 5.21,-3.45 6.41,-5.07l-0.67 -0.26c-1.24,0.73 -0.54,0.53 -1.52,1.3l-4.57 2.66c-0.51,2.49 -0.05,2.9 -0.15,5.02 -1.71,1.24 -1.56,-0.12 -2.74,1.6 -0.27,0.39 -0.32,0.58 -0.52,0.87 -1.6,-0.32 -0.08,-0.24 -2.08,-0.71z"/>
 </g>
</svg>
