<?xml version="1.0" encoding="UTF-8"?>
<!DOCTYPE svg PUBLIC "-//W3C//DTD SVG 1.1//EN" "http://www.w3.org/Graphics/SVG/1.1/DTD/svg11.dtd">
<!-- Creator: CorelDRAW 2019 (64-Bit) -->
<svg xmlns="http://www.w3.org/2000/svg" xml:space="preserve" width="872.067mm" height="182.033mm" version="1.1" style="shape-rendering:geometricPrecision; text-rendering:geometricPrecision; image-rendering:optimizeQuality; fill-rule:evenodd; clip-rule:evenodd"
viewBox="0 0 472186.46 98563.2"
 xmlns:xlink="http://www.w3.org/1999/xlink">
 <defs>
  <style type="text/css">
   <![CDATA[
    .str0 {stroke:#FFCC29;stroke-width:108.29;stroke-miterlimit:22.9256}
    .fil4 {fill:none}
    .fil3 {fill:#FFCC29}
    .fil1 {fill:#29156E}
    .fil2 {fill:#FBFAFA}
    .fil0 {fill:#FEFEFE;fill-rule:nonzero}
   ]]>
  </style>
 </defs>
 <g id="Capa_x0020_1">
  <metadata id="CorelCorpID_0Corel-Layer"/>
  <g id="_1743736937872">
   <path class="fil0" d="M123053.23 57243.99l9298.38 2855.97c-1427.93,5235.89 -3807.9,9121.27 -7128.76,11667.25 -3320.86,2534.94 -7527.28,3807.96 -12630.34,3807.96 -6320.69,0 -11512.34,-2158.57 -15585.89,-6475.71 -4062.55,-4317.09 -6099.35,-10217.18 -6099.35,-17711.26 0,-7914.69 2047.84,-14069.37 6132.54,-18452.9 4084.64,-4383.53 9464.45,-6575.34 16128.32,-6575.34 5822.55,0 10549.25,1726.87 14180.1,5169.5 2169.62,2036.8 3785.76,4959.15 4870.57,8778.15l-9497.64 2258.2c-564.58,-2457.46 -1737.91,-4405.72 -3520.12,-5833.65 -1793.3,-1427.98 -3962.92,-2136.43 -6508.91,-2136.43 -3531.16,0 -6398.18,1261.92 -8589.94,3796.86 -2202.86,2523.84 -3298.77,6619.58 -3298.77,12287.17 0,5999.72 1084.86,10283.62 3243.38,12829.6 2169.67,2557.08 4981.29,3830.05 8446.07,3830.05 2557.08,0 4759.89,-808.07 6597.43,-2435.26 1837.54,-1627.24 3165.9,-4173.22 3962.92,-7660.15zm17213.18 17534.15l0 -47554.73 9630.46 0 0 47554.73 -9630.46 0zm18784.97 0l0 -47554.73 35201.13 0 0 8036.46 -25570.62 0 0 10560.35 23777.37 0 0 8036.46 -23777.37 0 0 12884.99 26500.46 0 0 8036.46 -36130.97 0zm44300.31 0l0 -47554.73 9320.53 0 19570.95 31869.22 0 -31869.22 8899.92 0 0 47554.73 -9619.41 0 -19272.12 -31260.41 0 31260.41 -8899.87 0zm78383.44 -17534.15l9298.38 2855.97c-1427.93,5235.89 -3807.9,9121.27 -7128.76,11667.25 -3320.86,2534.94 -7527.28,3807.96 -12630.34,3807.96 -6320.69,0 -11512.34,-2158.57 -15585.89,-6475.71 -4062.55,-4317.09 -6099.35,-10217.18 -6099.35,-17711.26 0,-7914.69 2047.84,-14069.37 6132.54,-18452.9 4084.64,-4383.53 9464.45,-6575.34 16128.32,-6575.34 5822.55,0 10549.25,1726.87 14180.1,5169.5 2169.62,2036.8 3785.76,4959.15 4870.57,8778.15l-9497.64 2258.2c-564.58,-2457.46 -1737.91,-4405.72 -3520.12,-5833.65 -1793.3,-1427.98 -3962.92,-2136.43 -6508.91,-2136.43 -3531.16,0 -6398.18,1261.92 -8589.94,3796.86 -2202.86,2523.84 -3298.77,6619.58 -3298.77,12287.17 0,5999.72 1084.86,10283.62 3243.38,12829.6 2169.67,2557.08 4981.29,3830.05 8446.07,3830.05 2557.08,0 4759.89,-808.07 6597.43,-2435.26 1837.54,-1627.24 3165.9,-4173.22 3962.92,-7660.15zm17213.18 17534.15l0 -47554.73 9630.46 0 0 47554.73 -9630.46 0zm61624.11 0l-10372.2 0 -4106.79 -10825.99 -19072.81 0 -3951.82 10825.99 -10183.99 0 18464 -47554.73 10172.89 0 19050.72 47554.73zm-17600.59 -18862.51l-6608.53 -17600.54 -6420.32 17600.54 13028.86 0zm22725.8 18862.51l0 -47554.73 9320.53 0 19570.95 31869.22 0 -31869.22 8899.92 0 0 47554.73 -9619.41 0 -19272.12 -31260.41 0 31260.41 -8899.87 0zm45971.84 -23489.58c0,-4848.42 730.59,-8922.02 2180.66,-12220.73 1073.76,-2424.26 2557.08,-4604.98 4427.82,-6531.05 1870.79,-1926.12 3918.63,-3354.05 6143.58,-4295 2966.64,-1250.87 6387.13,-1881.83 10261.47,-1881.83 7018.09,0 12619.3,2180.72 16836.81,6531.05 4206.41,4361.38 6309.59,10416.44 6309.59,18176.21 0,7693.29 -2092.13,13715.15 -6265.36,18054.39 -4173.22,4350.33 -9763.33,6519.95 -16748.18,6519.95 -7073.48,0 -12707.88,-2158.52 -16881.05,-6486.76 -4173.22,-4317.09 -6265.36,-10272.52 -6265.36,-17866.23zm9896.15 -320.98c0,5390.85 1250.87,9475.49 3741.52,12265.02 2490.65,2778.49 5656.49,4173.22 9486.59,4173.22 3841.09,0 6984.85,-1383.69 9453.35,-4140.03 2457.46,-2767.39 3686.18,-6907.36 3686.18,-12431.09 0,-5457.29 -1195.54,-9530.88 -3597.6,-12209.69 -2391.02,-2689.9 -5567.96,-4029.3 -9541.93,-4029.3 -3962.92,0 -7162.01,1361.55 -9586.22,4073.6 -2424.26,2723.09 -3641.89,6818.83 -3641.89,12298.27z"/>
   <g>
    <g>
     <path class="fil1" d="M50248.91 56641.46c606.49,230.55 2093.16,1500.27 2471.86,1990.02 -2149.85,3520.71 -7733.57,5660.17 -12530.5,4131.91 -10113.65,-3221.61 -10135.42,-17400.14 -386.06,-20993.03 4109.06,-1514.45 8790.33,-413.02 11804.73,2673.82l1035.59 1407.41c-1021.4,416 -1517.43,1106.36 -2399.47,1669.64 -1296.08,-966.18 -3737.46,-4637.2 -8999.93,-2970.59 -1822.6,577.41 -2788.18,1330.9 -3858.31,2615.29 -2342.29,2811.35 -2273.14,6917.92 -181.01,9841.41 2414.95,3375.12 7964.07,4390.83 11459.23,1436.05 909.54,-769.09 1100.08,-910.89 1583.87,-1801.91zm4018.64 3036.16c948.2,754.09 2290.85,1549 3043.26,2460.7 -646.82,1020.32 -602.15,1173.61 -1489.06,1844.63 -837.69,633.5 -953.67,991.73 -1818.81,1637.74 -1360.57,1015.66 -2701.6,1838.35 -4449.58,2460.7 -11440.76,4072.57 -23069.63,-4331.76 -22898.15,-16083.38 171.26,-11737.21 11791.41,-19714.11 22944.39,-15674.52 3239.05,1173.34 6537.11,3935.09 7776.56,5992.9 -777.75,787.55 -2077.41,1821.51 -3001.62,2418.25 -1575.69,-1791.03 -2882.66,-3402.35 -5696.67,-4517.97 -12414.57,-4921.62 -23176.62,9159.23 -15511.98,19677.62 4642.34,6371.05 14825.14,7761.84 21101.65,-216.69zm-10667.08 17314.43c2571.22,-854.26 9827.55,-6512.86 11690.37,-8690.98 5797.16,-6778.55 9236.28,-13948.25 9287.99,-24371.13 4.06,-818.36 -215.61,-7666.59 -923.94,-8378.99 -7317.84,519.15 -14278.48,667.51 -19789.54,-4494.52 -742.93,254.81 -1295.27,779.37 -2014.76,1210.32 -6650.87,3981.66 -11052.54,3732.53 -18366.59,3235.2 -290.71,2901.94 -776.12,5364.81 -776.12,8427.99 0,8670.24 2489.56,15152.88 6513.67,20834.06 3099.62,4376.11 8709.17,9275.97 14378.92,12228.04z"/>
     <path class="fil2" d="M54267.55 59677.62c-6276.51,7978.53 -16459.31,6587.74 -21101.65,216.69 -7664.64,-10518.39 3097.4,-24599.24 15511.98,-19677.62 2814,1115.62 4120.97,2726.94 5696.67,4517.97 924.21,-596.74 2223.87,-1630.71 3001.62,-2418.25 -1239.45,-2057.81 -4537.52,-4819.56 -7776.56,-5992.9 -11152.98,-4039.59 -22773.13,3937.31 -22944.39,15674.52 -171.48,11751.61 11457.39,20155.94 22898.15,16083.38 1747.98,-622.35 3089.01,-1445.04 4449.58,-2460.7 865.14,-646.01 981.12,-1004.24 1818.81,-1637.74 886.91,-671.03 842.24,-824.31 1489.06,-1844.63 -752.41,-911.7 -2095.06,-1706.62 -3043.26,-2460.7z"/>
     <path class="fil1" d="M27466.47 34334.09c3273.59,0 6471.76,-553.75 9322.8,-1573.8 4036.34,-1443.9 4184.16,-2093.98 6828.09,-3714.01 888.26,396.89 2693.15,2380.35 6887.98,3844.18 5624.81,1962.51 9543.82,1496.15 14991.42,1039.11 1249.3,3435 955.29,12082.93 370.25,15904.75 -689.27,4501.35 -2429.9,9296.7 -4441.41,12617.08 -1770.35,2921.86 -4951.89,7337.71 -7750.95,9541.39 -846.41,666.15 -1470.05,1302.64 -2364.32,1999 -1465.45,1140.63 -6882.29,5014.76 -7709.86,4995.15 -672.65,-15.81 -6520.44,-4046.41 -7908.57,-5265.77 -509.08,-447.24 -546.06,-561.87 -1100.35,-959.03l-4333.93 -4186.65c-1510.01,-1803 -3070.44,-3841.96 -4434.58,-6160.32 -2103.29,-3574.91 -3664.25,-7929.52 -4411.52,-12614.32 -551.8,-3456.77 -963.41,-13010.99 520.77,-15855.26l5534.17 388.5zm-8528.16 6314.9l0 4439.3c660.69,2144.33 95.03,5519.72 2559.52,12401.96 1427.01,3985.5 3387.35,7036.34 5377.37,9842.49l5278.01 5779.18c733.62,589.65 1383.21,1155.36 2165.56,1771.43 744.56,586.13 1322.51,1075.28 2076.05,1610.78 866.49,616.07 1479.58,1004.78 2355.07,1569.14 6009.74,3874.39 3927.73,3535.17 9765.71,57.18l2167.51 -1513.91c3554.77,-2710.59 3003.79,-2120.4 6178.83,-5373.8 663.93,-680.61 1314.28,-1182.6 1812.74,-1859.9 3317.4,-4506.49 4555.76,-5476.18 7073.37,-12069.61 2365.14,-6194.59 1950.54,-11063.15 2514.58,-12782.28l0 -4934.73 -970.24 -7617c-4927.36,461.7 -8808.8,855.34 -13711.42,-328.88 -4047.77,-977.28 -6772.81,-2472.4 -9722.99,-4997.05l-284.21 0c-593.17,689.55 -3409.39,2364.6 -4610.99,2952.62 -9218.84,4510.6 -17030.76,2144.06 -18957.05,2496.06 -324.77,1278.43 -520.5,2873.94 -661.28,4185.84 -108.07,1008.08 -222.11,3732.8 -406.15,4371.18z"/>
     <path class="fil2" d="M43600.48 76992.06c-5669.76,-2952.08 -11279.3,-7851.93 -14378.92,-12228.04 -4024.11,-5681.18 -6513.67,-12163.82 -6513.67,-20834.06 0,-3063.18 485.42,-5526.05 776.12,-8427.99 7314.05,497.33 11715.72,746.45 18366.59,-3235.2 719.49,-430.95 1271.83,-955.51 2014.76,-1210.32 5511.05,5162.03 12471.7,5013.67 19789.54,4494.52 708.33,712.39 928,7560.63 923.94,8378.99 -51.71,10422.88 -3490.83,17592.58 -9287.99,24371.13 -1862.83,2178.12 -9119.16,7836.72 -11690.37,8690.98zm-16134 -42657.96l-5534.17 -388.5c-1484.19,2844.27 -1072.57,12398.49 -520.77,15855.26 747.26,4684.79 2308.23,9039.4 4411.52,12614.32 1364.15,2318.36 2924.57,4357.32 4434.58,6160.32l4333.93 4186.65c554.29,397.16 591.27,511.78 1100.35,959.03 1388.13,1219.36 7235.92,5249.96 7908.57,5265.77 827.56,19.6 6244.4,-3854.52 7709.86,-4995.15 894.27,-696.37 1517.92,-1332.85 2364.32,-1999 2799.06,-2203.67 5980.61,-6619.52 7750.95,-9541.39 2011.51,-3320.37 3752.13,-8115.73 4441.41,-12617.08 585.04,-3821.82 879.05,-12469.75 -370.25,-15904.75 -5447.6,457.04 -9366.61,923.4 -14991.42,-1039.11 -4194.83,-1463.83 -5999.72,-3447.29 -6887.98,-3844.18 -2643.93,1620.04 -2791.75,2270.11 -6828.09,3714.01 -2851.04,1020.05 -6049.21,1573.8 -9322.8,1573.8z"/>
     <path class="fil2" d="M50248.91 56641.46c-483.79,891.02 -674.33,1032.83 -1583.87,1801.91 -3495.16,2954.78 -9044.28,1939.06 -11459.23,-1436.05 -2092.13,-2923.49 -2161.28,-7030.06 181.01,-9841.41 1070.14,-1284.39 2035.71,-2037.88 3858.31,-2615.29 5262.47,-1666.6 7703.85,2004.42 8999.93,2970.59 882.03,-563.28 1378.06,-1253.63 2399.47,-1669.64l-1035.59 -1407.41c-3014.4,-3086.84 -7695.67,-4188.28 -11804.73,-2673.82 -9749.36,3592.89 -9727.59,17771.42 386.06,20993.03 4796.93,1528.26 10380.65,-611.2 12530.5,-4131.91 -378.69,-489.75 -1865.37,-1759.46 -2471.86,-1990.02z"/>
    </g>
    <g>
     <polygon class="fil3 str0" points="31933.76,14420.51 33249.88,18112.11 37534.37,18104.63 34063.37,20378.75 35395.19,24065.8 31933.76,21779.66 28472.39,24065.8 29804.21,20378.75 26333.2,18104.63 30617.7,18112.11 "/>
     <polygon class="fil3 str0" points="55267.19,14420.51 56583.31,18112.11 60867.8,18104.63 57396.79,20378.75 58728.61,24065.8 55267.19,21779.66 51805.82,24065.8 53137.64,20378.75 49666.63,18104.63 53951.12,18112.11 "/>
    </g>
   </g>
   <polygon class="fil4" points="-0,0 472186.46,0 472186.46,98563.2 -0,98563.2 "/>
  </g>
 </g>
</svg>
